/* XPM */
static char *actor_xpm[]={
"16 16 3 1",
"# c #000000",
". c #c5c2c5",
"a c #ffffff",
"......#####.....",
"......#aaa##....",
"......#aaaa#....",
"......#aaa##....",
"......##aa#.....",
".......####.....",
".........#......",
".........##.....",
"........####....",
".......###.###..",
".....##..#...##.",
"........##......",
"........###.....",
".......#..##....",
"......#....##...",
".....#......##.."};
