/* XPM */
static char *disable_xpm[] = {
/* width height num_colors chars_per_pixel */
"    42    32        2            1",
/* colors */
". c #000000",
"# c #c0c0c0",
/* pixels */
"..#.##.#..#.##.#..#.#..#.##.#..#.##.#..#.#",
"##.#..#.##.#..#.##.#.##.#..#.##.#..#.##.#.",
"..#.##.#..#.##.#..#.#..#.##.#..#.##.#..#.#",
"##.#..#.##.#..#.##.#.##.#..#.##.#..#.##.#.",
"..#.##.#..#.##.#..#.#..#.##.#..#.##.#..#.#",
"##.#..#.##.#..#.##.#.##.#..#.##.#..#.##.#.",
"..#.##.#..#.##.#..#.#..#.##.#..#.##.#..#.#",
"##.#..#.##.#..#.##.#.##.#..#.##.#..#.##.#.",
"..#.##.#..#.##.#..#.#..#.##.#..#.##.#..#.#",
"##.#..#.##.#..#.##.#.##.#..#.##.#..#.##.#.",
"..#.##.#..#.##.#..#.#..#.##.#..#.##.#..#.#",
"##.#..#.##.#..#.##.#.##.#..#.##.#..#.##.#.",
"..#.##.#..#.##.#..#.#..#.##.#..#.##.#..#.#",
"##.#..#.##.#..#.##.#.##.#..#.##.#..#.##.#.",
"..#.##.#..#.##.#..#.#..#.##.#..#.##.#..#.#",
"##.#..#.##.#..#.##.#.##.#..#.##.#..#.##.#.",
"..#.##.#..#.##.#..#.#..#.##.#..#.##.#..#.#",
"##.#..#.##.#..#.##.#.##.#..#.##.#..#.##.#.",
"..#.##.#..#.##.#..#.#..#.##.#..#.##.#..#.#",
"##.#..#.##.#..#.##.#.##.#..#.##.#..#.##.#.",
"..#.##.#..#.##.#..#.#..#.##.#..#.##.#..#.#",
"##.#..#.##.#..#.##.#.##.#..#.##.#..#.##.#.",
"..#.##.#..#.##.#..#.#..#.##.#..#.##.#..#.#",
"##.#..#.##.#..#.##.#.##.#..#.##.#..#.##.#.",
"..#.##.#..#.##.#..#.#..#.##.#..#.##.#..#.#",
"##.#..#.##.#..#.##.#.##.#..#.##.#..#.##.#.",
"..#.##.#..#.##.#..#.#..#.##.#..#.##.#..#.#",
"##.#..#.##.#..#.##.#.##.#..#.##.#..#.##.#.",
"..#.##.#..#.##.#..#.#..#.##.#..#.##.#..#.#",
"##.#..#.##.#..#.##.#.##.#..#.##.#..#.##.#.",
"..#.##.#..#.##.#..#.#..#.##.#..#.##.#..#.#",
"##.#..#.##.#..#.##.#.##.#..#.##.#..#.##.#."
};
