/* XPM */
static char *execute_xpm[]={
"16 16 2 1",
"# c #626562",
". c #cdcecd",
"................",
"................",
"................",
"................",
"......#.........",
"......##........",
"......###.......",
"......####......",
"......#####.....",
"......####......",
"......###.......",
"......##........",
"......#.........",
"................",
"................",
"................"};
