/* XPM */
static char *function_xpm[]={
"16 16 2 1",
"# c #000000",
". c #c5c2c5",
"................",
"................",
".###..##....###.",
".##..##......##.",
".##..##..##..##.",
".##.####.##..##.",
".##..##......##.",
".##..##......##.",
".##..##......##.",
".##..##......##.",
".##..##..##..##.",
".##..##..##..##.",
".##.....##...##.",
".##..........##.",
".###........###.",
"................"};
