/* XPM */
static char *help_xpm[]={
"16 16 14 1",
"a c #4a4c4a",
"g c #4a4ca4",
"h c #4a4cac",
"# c #525052",
"k c #5250ac",
"j c #a4a5a4",
"l c #aca5ac",
"e c #acaaac",
"i c #d5d2d5",
"f c #ded6de",
"b c #dedad5",
". c #e6dede",
"d c #ffff4a",
"c c #ffffff",
"..#a#a#a#a#a#...",
"bacccdcccdcccab.",
".acdcccdcccdcae.",
"bacccfghghiccaj.",
".acdchkdfhkdcae.",
"baccchjcchgccaj.",
".acdcccdegedcae.",
"bacccdcegfcccaj.",
".acdcccgeccdcae.",
"bacccdcccdcccaj.",
".acdccchkccdcae.",
"bacccdcdcdcccaj.",
"..#a#a#a#cca#l..",
"b.bejejejadaj.b.",
"..........#a....",
"b.b.b.b.b.bab.b."};
