/* XPM */
static char *object_xpm[]={
"16 16 3 1",
"# c #000000",
". c #c5c2c5",
"a c #ffffff",
"................",
".........##.###.",
".........####a#.",
".........###aa#.",
".........####a#.",
"........######..",
".......##aa####.",
"......##aaa####.",
".....##aaa#.....",
"....##aaa#......",
"...##aaa#.......",
"..##aaa#........",
"..#aaa#.........",
"..#aa#..........",
"..###...........",
"................"};
