/* XPM */
static char *zoomin_xpm[]={
"16 16 4 1",
"a c #000000",
"b c #000083",
"# c #838183",
". c #c5c2c5",
"................",
"....#aaaa#......",
"...aa....aa.....",
"..a#......#a....",
".#a...bb...a#...",
".a....bb....a...",
".a..bbbbbb..a...",
".a..bbbbbb..a...",
".a....bb....a...",
".#a...bb...a#...",
"..a#......#a....",
"...aa....aaaa...",
"....#aaaa#.aab..",
"............bab.",
".............bab",
"..............ba"};
